<?xml version="1.0" encoding="utf-8"?>
<!-- Generator: Adobe Illustrator 22.1.0, SVG Export Plug-In . SVG Version: 6.00 Build 0)  -->
<svg version="1.1" id="Layer_1" xmlns="http://www.w3.org/2000/svg" xmlns:xlink="http://www.w3.org/1999/xlink" x="0px" y="0px"
	 viewBox="0 0 41 29" style="enable-background:new 0 0 41 29;" xml:space="preserve">
<g>
	<g>
		<path d="M31.1,7.3c-0.1,0-0.3-0.1-0.4-0.2c-0.7-0.9-3.9-4.6-3.9-4.6l0.8-0.6c0,0,3.2,3.8,3.9,4.6c0.2,0.2,0.1,0.5-0.1,0.7
			C31.3,7.2,31.2,7.3,31.1,7.3z"/>
	</g>
	<g>
		<path d="M35,27.8c-2.8,0-5.1-2.3-5.1-5.1s2.3-5.1,5.1-5.1s5.1,2.3,5.1,5.1S37.8,27.8,35,27.8z M35,18.6c-2.3,0-4.1,1.9-4.1,4.1
			s1.9,4.1,4.1,4.1s4.1-1.9,4.1-4.1S37.3,18.6,35,18.6z"/>
	</g>
	<g>
		<path d="M35,25.5c-1.6,0-2.8-1.3-2.8-2.8s1.3-2.8,2.8-2.8s2.8,1.3,2.8,2.8S36.5,25.5,35,25.5z M35,20.9c-1,0-1.8,0.8-1.8,1.8
			s0.8,1.8,1.8,1.8s1.8-0.8,1.8-1.8S36,20.9,35,20.9z"/>
	</g>
	<g>
		<path d="M8.7,28.1c-2.8,0-5.1-2.3-5.1-5.1c0-2.8,2.3-5.1,5.1-5.1s5.1,2.3,5.1,5.1C13.9,25.8,11.6,28.1,8.7,28.1z M8.7,18.9
			c-2.3,0-4.1,1.9-4.1,4.1s1.9,4.1,4.1,4.1s4.1-1.9,4.1-4.1S11,18.9,8.7,18.9z"/>
	</g>
	<g>
		<path d="M8.7,25.8c-1.6,0-2.8-1.3-2.8-2.8s1.3-2.8,2.8-2.8s2.8,1.3,2.8,2.8S10.3,25.8,8.7,25.8z M8.7,21.2c-1,0-1.8,0.8-1.8,1.8
			c0,1,0.8,1.8,1.8,1.8s1.8-0.8,1.8-1.8C10.6,22,9.8,21.2,8.7,21.2z"/>
	</g>
	<g>
		<path d="M27.4,19l-9.3-0.3l0-0.5c0-0.8,1-3,1.6-4.2L3.9,9.3l3,5.3L6,15.1L1.8,7.7l19.4,5.8L20.9,14c-0.7,1.3-1.4,2.9-1.6,3.8
			l7.6,0.3c0.7-1.5,1.6-5.2,1.6-5.8c-0.1-0.3-1.1-2-1.9-3.4c-0.8-1.3-1.5-2.6-2-3.5h-2.2c-0.7,0-1.2-0.5-1.2-1.2s0.5-1.2,1.2-1.2
			h2.7c0.6-0.6,2.7-2.5,3.8-2l-0.4,0.9c0,0,0,0,0,0c-0.4,0-1.6,0.8-2.8,1.9l-0.1,0.1h-3.1c-0.2,0-0.2,0.1-0.2,0.2s0.1,0.2,0.2,0.2
			h2.8l0.1,0.3c0.4,0.8,1.3,2.3,2.1,3.7c1.4,2.3,1.9,3.3,2,3.6c0.2,0.8-1.1,5.5-1.8,6.8L27.4,19z"/>
	</g>
	<g>
		<path d="M20.6,13.9c-0.1,0-0.2,0-0.3-0.1c-0.2-0.2-0.3-0.5-0.1-0.7c0.2-0.4,0.7-2.4,0.2-3c-0.5-0.8-1.7-0.6-1.7-0.6
			c-1.7,0.4-4.4,0.6-7.8-0.7c-0.4-0.2-3.4-0.5-6.2-0.7L4,8.9c-0.2,0.2-0.5,0.2-0.7,0s-0.2-0.5,0-0.7l0.9-0.9
			c0.1-0.1,0.2-0.2,0.4-0.1c1,0.1,5.9,0.5,6.7,0.8c3.2,1.3,5.7,1.1,7.2,0.7c0.1,0,1.8-0.3,2.7,0.9c0.9,1.1,0,3.9-0.2,4.2
			C20.9,13.9,20.7,13.9,20.6,13.9z"/>
	</g>
	<g>
		<polygon points="0.9,20.4 2.8,17.6 5.6,13.9 6.4,14.4 3.6,18.3 3.9,18.2 8.2,15.2 8.8,16.1 4.3,19.1 		"/>
	</g>
	<g>
		<path d="M29.2,22.9l-14.5-0.3V22c0-1.9-0.7-3.3-2.1-4.4c-0.8-0.6-2-0.8-3.2-1.1c-1.3-0.3-2.6-0.6-3.2-1.3c-0.2-0.2-0.2-0.5,0-0.7
			c0.2-0.2,0.5-0.2,0.7,0c0.4,0.5,1.6,0.7,2.7,1c1.3,0.3,2.7,0.6,3.6,1.3c1.6,1.2,2.4,2.8,2.5,4.9l12.7,0.2c0.1-0.6,0.3-1.6,0.5-2.5
			c0-0.1,0.6-2.4,2.9-3.4c1.7-0.8,3.7-0.7,6.2,0.3c-0.3-0.8-0.7-2-1.2-3.1c-1.9-3.9-5.8-6-5.9-6c-0.2-0.1-0.3-0.4-0.2-0.7
			c0.1-0.2,0.4-0.3,0.7-0.2c0.2,0.1,4.2,2.3,6.3,6.5c0.9,1.9,1.6,4.2,1.6,4.3l0.3,1.1l-1-0.5c-2.6-1.3-4.8-1.5-6.4-0.8
			c-1.8,0.9-2.3,2.7-2.3,2.8c-0.3,1.3-0.6,2.9-0.6,2.9L29.2,22.9z"/>
	</g>
	<g>
		<path d="M32.7,6.4l-0.5,0c-0.4,0-2.5-0.2-3.1-1.2l0.8-0.6c0.2,0.4,1,0.6,1.8,0.7c-0.1-0.3-0.1-0.6-0.3-0.9c-0.5-1.1-2.3-2.2-3-2.5
			l0.4-0.9c0.1,0.1,2.6,1.3,3.4,3c0.5,1,0.5,1.9,0.5,2V6.4z"/>
	</g>
</g>
</svg>
